<svg width="15" height="18" viewBox="0 0 15 18" fill="none" xmlns="http://www.w3.org/2000/svg">
<g id="Group">
<path id="Vector" fill-rule="evenodd" clip-rule="evenodd" d="M6.74973 17.426C6.84257 17.5004 6.91613 17.558 6.96722 17.5975L7.4991 17.9965L8.03097 17.5975C8.08206 17.558 8.15563 17.5004 8.24846 17.426C8.43407 17.2773 8.69708 17.0608 9.01174 16.7861C9.63999 16.2375 10.4795 15.4522 11.3214 14.506C12.9703 12.6529 14.7731 10.024 14.7731 7.274C14.7731 3.25668 11.5164 0 7.4991 0C3.48178 0 0.225098 3.25668 0.225098 7.274C0.225098 10.024 2.02792 12.6529 3.67679 14.506C4.51866 15.4522 5.3582 16.2375 5.98645 16.7861C6.30111 17.0608 6.56413 17.2773 6.74973 17.426ZM7.4991 1.5C4.31021 1.5 1.7251 4.08511 1.7251 7.274C1.7251 9.43188 3.18427 11.696 4.7974 13.5089C5.58653 14.3958 6.378 15.1367 6.97299 15.6561C7.17401 15.8317 7.35198 15.9814 7.4991 16.1023C7.64621 15.9814 7.82419 15.8317 8.0252 15.6561C8.6202 15.1367 9.41166 14.3958 10.2008 13.5089C11.8139 11.696 13.2731 9.43188 13.2731 7.274C13.2731 4.08511 10.688 1.5 7.4991 1.5Z" fill="white"/>
<path id="Vector_2" fill-rule="evenodd" clip-rule="evenodd" d="M7.49906 4.762C6.11172 4.762 4.98706 5.88666 4.98706 7.274C4.98706 8.66134 6.11172 9.786 7.49906 9.786C8.8864 9.786 10.0111 8.66134 10.0111 7.274C10.0111 5.88666 8.8864 4.762 7.49906 4.762ZM3.48706 7.274C3.48706 5.05823 5.28329 3.262 7.49906 3.262C9.71483 3.262 11.5111 5.05823 11.5111 7.274C11.5111 9.48976 9.71483 11.286 7.49906 11.286C5.28329 11.286 3.48706 9.48976 3.48706 7.274Z" fill="white"/>
</g>
</svg>
